<svg width="41" height="41" viewBox="0 0 41 41" fill="none" xmlns="http://www.w3.org/2000/svg">
<rect x="0.5" y="0.11499" width="40" height="40" rx="20" fill="#1F2024"/>
<mask id="mask0_267_5188" style="mask-type:alpha" maskUnits="userSpaceOnUse" x="15" y="14" width="11" height="13">
<path d="M22.8864 14.1209C22.8609 14.0924 21.9422 14.1322 21.1427 14.9999C20.3432 15.8669 20.4662 16.8614 20.4842 16.8869C20.5022 16.9124 21.6242 16.9522 22.3404 15.9434C23.0567 14.9347 22.9119 14.1502 22.8864 14.1209ZM25.3719 22.9207C25.3359 22.8487 23.6282 21.9952 23.7872 20.3542C23.9462 18.7124 25.0434 18.2624 25.0607 18.2137C25.0779 18.1649 24.6129 17.6212 24.1202 17.3459C23.7584 17.1519 23.358 17.0407 22.9479 17.0204C22.8669 17.0182 22.5857 16.9492 22.0074 17.1074C21.6264 17.2117 20.7677 17.5492 20.5314 17.5627C20.2944 17.5762 19.5894 17.1712 18.8312 17.0639C18.3459 16.9702 17.8314 17.1622 17.4632 17.3099C17.0957 17.4569 16.3967 17.8754 15.9077 18.9877C15.4187 20.0992 15.6744 21.8602 15.8574 22.4077C16.0404 22.9544 16.3262 23.8507 16.8122 24.5047C17.2442 25.2427 17.8172 25.7549 18.0564 25.9289C18.2957 26.1029 18.9707 26.2184 19.4387 25.9792C19.8152 25.7482 20.4947 25.6154 20.7632 25.6252C21.0309 25.6349 21.5589 25.7407 22.0997 26.0294C22.5279 26.1772 22.9329 26.1157 23.3387 25.9507C23.7444 25.7849 24.3317 25.1564 25.0172 23.8822C25.2774 23.2897 25.3959 22.9694 25.3719 22.9207Z" fill="white"/>
<path d="M22.8864 14.1209C22.8609 14.0924 21.9422 14.1322 21.1427 14.9999C20.3432 15.8669 20.4662 16.8614 20.4842 16.8869C20.5022 16.9124 21.6242 16.9522 22.3404 15.9434C23.0567 14.9347 22.9119 14.1502 22.8864 14.1209ZM25.3719 22.9207C25.3359 22.8487 23.6282 21.9952 23.7872 20.3542C23.9462 18.7124 25.0434 18.2624 25.0607 18.2137C25.0779 18.1649 24.6129 17.6212 24.1202 17.3459C23.7584 17.1519 23.358 17.0407 22.9479 17.0204C22.8669 17.0182 22.5857 16.9492 22.0074 17.1074C21.6264 17.2117 20.7677 17.5492 20.5314 17.5627C20.2944 17.5762 19.5894 17.1712 18.8312 17.0639C18.3459 16.9702 17.8314 17.1622 17.4632 17.3099C17.0957 17.4569 16.3967 17.8754 15.9077 18.9877C15.4187 20.0992 15.6744 21.8602 15.8574 22.4077C16.0404 22.9544 16.3262 23.8507 16.8122 24.5047C17.2442 25.2427 17.8172 25.7549 18.0564 25.9289C18.2957 26.1029 18.9707 26.2184 19.4387 25.9792C19.8152 25.7482 20.4947 25.6154 20.7632 25.6252C21.0309 25.6349 21.5589 25.7407 22.0997 26.0294C22.5279 26.1772 22.9329 26.1157 23.3387 25.9507C23.7444 25.7849 24.3317 25.1564 25.0172 23.8822C25.2774 23.2897 25.3959 22.9694 25.3719 22.9207Z" fill="white"/>
</mask>
<g mask="url(#mask0_267_5188)">
<rect x="14.501" y="14.115" width="12" height="12" fill="white"/>
</g>
</svg>
