<svg width="41" height="41" viewBox="0 0 41 41" fill="none" xmlns="http://www.w3.org/2000/svg">
<rect x="0.5" y="0.11499" width="40" height="40" rx="20" fill="#ED3241"/>
<mask id="mask0_267_5172" style="mask-type:alpha" maskUnits="userSpaceOnUse" x="15" y="14" width="11" height="12">
<path d="M25.7835 19.0836C25.8522 19.4518 25.8897 19.8368 25.8897 20.2385C25.8897 23.3807 23.7867 25.615 20.6104 25.615C19.888 25.6152 19.1727 25.4731 18.5053 25.1968C17.8379 24.9205 17.2315 24.5153 16.7208 24.0046C16.21 23.4938 15.8049 22.8874 15.5286 22.22C15.2522 21.5526 15.1101 20.8373 15.1104 20.115C15.1101 19.3927 15.2522 18.6774 15.5286 18.01C15.8049 17.3426 16.21 16.7362 16.7208 16.2254C17.2315 15.7146 17.8379 15.3095 18.5053 15.0332C19.1727 14.7569 19.888 14.6148 20.6104 14.615C22.0954 14.615 23.3363 15.1614 24.2884 16.0487L22.7379 17.5991V17.5952C22.1608 17.0454 21.4283 16.7633 20.6104 16.7633C18.7956 16.7633 17.3206 18.2964 17.3206 20.1116C17.3206 21.9263 18.7956 23.4628 20.6104 23.4628C22.2569 23.4628 23.3777 22.5214 23.6079 21.2285H20.6104V19.0836H25.7841H25.7835Z" fill="white"/>
</mask>
<g mask="url(#mask0_267_5172)">
<rect x="14.501" y="14.115" width="12" height="12" fill="white"/>
</g>
</svg>
